<?xml version="1.0" encoding="utf-8"?>
<!-- Generator: Adobe Illustrator 19.2.1, SVG Export Plug-In . SVG Version: 6.00 Build 0)  -->
<svg version="1.1" id="Layer_1" xmlns="http://www.w3.org/2000/svg" xmlns:xlink="http://www.w3.org/1999/xlink" x="0px" y="0px"
	 width="79.4px" height="79.4px" viewBox="0 0 79.4 79.4" style="enable-background:new 0 0 79.4 79.4;" xml:space="preserve">
<style type="text/css">
	.st0{fill-rule:evenodd;clip-rule:evenodd;fill:#3EBEB0;}
	.st1{fill:#0279A0;}
	.st2{fill-rule:evenodd;clip-rule:evenodd;fill:#14A7DF;}
	.st3{fill:#14A7DF;}
</style>
<title>icons-masterfilefinal</title>
<path class="st0" d="M47,10H19c-1.7,0-3,1.3-3,3v54c0,1.7,1.3,3,3,3h42c1.7,0,3-1.3,3-3V27L47,10z"/>
<path class="st1" d="M54,61H26c-0.6,0-1-0.4-1-1v-1c0-0.6,0.4-1,1-1h28c0.6,0,1,0.4,1,1v1C55,60.6,54.6,61,54,61z"/>
<path class="st1" d="M54,53H26c-0.6,0-1-0.4-1-1v-1c0-0.6,0.4-1,1-1h28c0.6,0,1,0.4,1,1v1C55,52.6,54.6,53,54,53z"/>
<path class="st2" d="M47,10v13.9c0,1.7,1.4,3.1,3.1,3.1H64L47,10z"/>
<circle class="st1" cx="40" cy="36" r="9"/>
<path class="st1" d="M28,36c0-6.6,5.4-12,12-12v12H28z"/>
<path class="st3" d="M40,27c-5,0-9,4-9,9h9V27z"/>
</svg>
