<svg xmlns="http://www.w3.org/2000/svg" viewBox="0 0 79.37 79.37"><defs><style>.cls-1{isolation:isolate;}.cls-2{fill:#20bbb1;}.cls-2,.cls-3{mix-blend-mode:multiply;}.cls-3{fill:#16a7e0;}</style></defs><title>icons-masterfilefinal</title><g class="cls-1"><g id="Layer_1" data-name="Layer 1"><path class="cls-2" d="M29.65,31l-9.23-9.23a2,2,0,0,0-2.93.09,30,30,0,0,0,0,39.3,2,2,0,0,0,2.93.09L29.65,52a2,2,0,0,0,.21-2.59,13,13,0,0,1,0-15.85A2,2,0,0,0,29.65,31Z"/><path class="cls-3" d="M29.85,49.41a13,13,0,0,1,0-15.85A2,2,0,0,0,29.65,31l-1.51-1.51a17,17,0,0,0,0,24L29.65,52A2,2,0,0,0,29.85,49.41Z"/><path class="cls-2" d="M62.83,21.84a2,2,0,0,0-2.93-.09L50.67,31a2,2,0,0,0-.21,2.59,13,13,0,0,1,0,15.85A2,2,0,0,0,50.67,52l9.23,9.23a2,2,0,0,0,2.93-.09A30,30,0,0,0,62.83,21.84Z"/><path class="cls-3" d="M52.89,28.76,50.67,31a2,2,0,0,0-.21,2.59,13,13,0,0,1,0,15.85A2,2,0,0,0,50.67,52l2.22,2.22a18,18,0,0,0,0-25.46Z"/><circle class="cls-3" cx="40.16" cy="41.49" r="10"/></g></g></svg>