<?xml version="1.0" encoding="utf-8"?>
<!-- Generator: Adobe Illustrator 21.0.2, SVG Export Plug-In . SVG Version: 6.00 Build 0)  -->
<svg version="1.1" id="Layer_1" xmlns="http://www.w3.org/2000/svg" xmlns:xlink="http://www.w3.org/1999/xlink" x="0px" y="0px"
	 width="70px" height="60px" viewBox="0 0 70 60" style="enable-background:new 0 0 70 60;" xml:space="preserve">
<style type="text/css">
	.st0{fill:#00BFB3;}
	.st1{fill:#14A7DF;}
</style>
<g>
	<g>
		<path class="st0" d="M65,31.7h-9.8c-0.7,0-1.3-0.4-1.7-0.9l-4.4-7.2h-8.7c-1.1,0-2-0.9-2-2c0-1.1,0.9-2,2-2h9.8
			c0.7,0,1.3,0.4,1.7,0.9l4.4,7.2H65c1.1,0,2,0.9,2,2C67,30.8,66.1,31.7,65,31.7z"/>
	</g>
	<g>
		<path class="st0" d="M54.8,52H7.2C3.8,52,1,49.2,1,45.7s2.8-6.3,6.2-6.3h47.5c3.4,0,6.2,2.8,6.2,6.3S58.2,52,54.8,52z M7.2,43.4
			c-1.3,0-2.3,1-2.3,2.3S6,48,7.2,48h47.5c1.3,0,2.3-1,2.3-2.3s-1-2.3-2.3-2.3H7.2z"/>
	</g>
	<g>
		<path class="st1" d="M7.7,43.4C7.7,43.4,7.7,43.4,7.7,43.4c-1.1,0-2-0.9-2-2l0-27.3c0-3.9,3.1-7.1,6.9-7.1h35.5
			c1.8,0,3.6,0.7,4.9,2.1c1.3,1.3,2,3.1,2,5v2.4c0,1.1-0.9,2-2,2c-1.1,0-2-0.9-2-2v-2.4c0-0.8-0.3-1.6-0.9-2.2
			C49.8,11.3,49,11,48.2,11H12.7c-1.6,0-3,1.4-3,3l0,27.3C9.7,42.5,8.8,43.4,7.7,43.4z"/>
	</g>
	<g>
		<path class="st1" d="M53.1,43.4C53.1,43.4,53.1,43.4,53.1,43.4c-1.1,0-2-0.9-2-2l0-5.7c0-1.1,0.9-2,2-2c0,0,0,0,0,0
			c1.1,0,2,0.9,2,2l0,5.7C55.1,42.5,54.2,43.4,53.1,43.4z"/>
	</g>
</g>
</svg>
