<svg id="Layer_1" data-name="Layer 1" xmlns="http://www.w3.org/2000/svg" viewBox="0 0 79.37 79.37"><defs><style>.cls-1{fill:#20bbb1;}.cls-2{fill:#16a7e0;}.cls-3{fill:#0a79a0;}</style></defs><title>icons-masterfilefinal</title><path class="cls-1" d="M65.24,30.16a2.52,2.52,0,0,0-1.12-2.1L49,18a2.52,2.52,0,1,0-2.8,4.2l14,9.34V47.12L50.09,44.59V36.47a2.52,2.52,0,1,0-5,0V46.56A2.52,2.52,0,0,0,47,49l9.61,2.4-10.4,6.93a2.52,2.52,0,1,0,2.8,4.2L64.11,52.45l.08-.07.16-.14a2.5,2.5,0,0,0,.37-.4l.13-.18a2.37,2.37,0,0,0,.38-1.27s0,0,0,0Z"/><circle class="cls-2" cx="47.57" cy="20.07" r="5.05"/><circle class="cls-2" cx="47.57" cy="36.47" r="5.05"/><circle class="cls-2" cx="47.57" cy="60.44" r="5.05"/><path class="cls-1" d="M33.83,58.34,23,51.11l10.25-3.42A2.52,2.52,0,0,0,35,45.3V36.47a2.52,2.52,0,0,0-5,0v7L19.81,46.85V31.51l14-9.34A2.52,2.52,0,1,0,31,18L15.89,28.06a2.52,2.52,0,0,0-1.12,2.1V50.35s0,.08,0,.12a2.51,2.51,0,0,0,0,.37c0,.07,0,.14,0,.21s0,.07,0,.1,0,.08.06.12a2.5,2.5,0,0,0,.25.48l.13.19a2.5,2.5,0,0,0,.4.38l.12.11,0,0L31,62.54a2.52,2.52,0,1,0,2.8-4.2Z"/><circle class="cls-2" cx="32.43" cy="20.07" r="5.05"/><circle class="cls-2" cx="32.43" cy="36.47" r="5.05"/><circle class="cls-2" cx="32.43" cy="60.44" r="5.05"/><path class="cls-3" d="M45.47,18.67a2.52,2.52,0,0,0,.7,3.5l3.62,2.41a5,5,0,0,0,2.8-4.2L49,18A2.52,2.52,0,0,0,45.47,18.67Z"/><path class="cls-3" d="M47.57,41.51a5,5,0,0,0,2.52-.7V36.47a2.52,2.52,0,0,0-5,0v4.35A5,5,0,0,0,47.57,41.51Z"/><path class="cls-3" d="M49.79,55.93l-3.62,2.41a2.52,2.52,0,1,0,2.8,4.2l3.62-2.41A5,5,0,0,0,49.79,55.93Z"/><path class="cls-3" d="M31,18l-3.62,2.41a5,5,0,0,0,2.8,4.2l3.62-2.41A2.52,2.52,0,1,0,31,18Z"/><path class="cls-3" d="M32.43,33.94a2.52,2.52,0,0,0-2.52,2.52v4.35a4.9,4.9,0,0,0,5,0V36.47A2.52,2.52,0,0,0,32.43,33.94Z"/><path class="cls-3" d="M33.83,58.34l-3.62-2.41a5,5,0,0,0-2.8,4.2L31,62.54a2.52,2.52,0,1,0,2.8-4.2Z"/></svg>