<svg xmlns="http://www.w3.org/2000/svg" viewBox="0 0 80 80"><defs><style>.cls-1{isolation:isolate;}.cls-2{fill:none;}.cls-3{fill:#00bfb3;}.cls-3,.cls-4{mix-blend-mode:multiply;}.cls-4,.cls-6{fill:#14a7df;}.cls-5{fill:#0279a0;}</style></defs><title>icon-securtiy-analytics</title><g class="cls-1"><g id="Layer_1" data-name="Layer 1"><rect class="cls-2" width="80" height="80"/><rect class="cls-3" x="14.86" y="18.76" width="52.38" height="41.98" rx="3.25" ry="3.25"/><rect class="cls-4" x="7.52" y="56.74" width="66" height="4" rx="2" ry="2"/><circle class="cls-5" cx="30.27" cy="39.49" r="8.08"/><path class="cls-5" d="M30.27,28.71A10.78,10.78,0,0,1,41,39.49H30.27Z"/><path class="cls-6" d="M38.35,39.49a8.08,8.08,0,0,0-8.08-8.08v8.08Z"/><rect class="cls-5" x="47.33" y="29.24" width="11.52" height="3.14" rx="0.63" ry="0.63" transform="translate(106.19 61.62) rotate(-180)"/><rect class="cls-5" x="47.33" y="36.57" width="13.62" height="3.14" rx="0.69" ry="0.69" transform="translate(108.29 76.29) rotate(180)"/><rect class="cls-5" x="47.33" y="43.9" width="8.38" height="3.14" rx="0.54" ry="0.54" transform="translate(103.05 90.95) rotate(180)"/></g></g></svg>