<?xml version="1.0" encoding="utf-8"?>
<!-- Generator: Adobe Illustrator 21.1.0, SVG Export Plug-In . SVG Version: 6.00 Build 0)  -->
<svg version="1.1" id="Layer_1" xmlns="http://www.w3.org/2000/svg" xmlns:xlink="http://www.w3.org/1999/xlink" x="0px" y="0px"
	 width="80px" height="80px" viewBox="0 0 80 80" style="enable-background:new 0 0 80 80;" xml:space="preserve">
<style type="text/css">
	.st0{fill:#14A7DF;}
	.st1{fill:#00BFB3;}
	.st2{fill:#0279A0;}
	.st3{fill:none;}
</style>
<title>icons-masterfilefinal</title>
<g>
	<g>
		<g>
			<path class="st0" d="M50,36.5c-1.4,0-2.5-1.1-2.5-2.5v-9c0-4.1-3.4-7.5-7.5-7.5s-7.5,3.4-7.5,7.5v9c0,1.4-1.1,2.5-2.5,2.5
				s-2.5-1.1-2.5-2.5v-9c0-6.9,5.6-12.5,12.5-12.5S52.5,18.1,52.5,25v9C52.5,35.4,51.4,36.5,50,36.5z"/>
		</g>
	</g>
	<path class="st1" d="M60,33v30c0,1.1-0.9,2-2,2H22c-1.1,0-2-0.9-2-2V33c0-1.1,0.9-2,2-2h36C59.1,31,60,31.9,60,33z"/>
	<g>
		<path class="st2" d="M30,36.5c1.4,0,2.5-1.1,2.5-2.5v-3h-5v3C27.5,35.4,28.6,36.5,30,36.5z"/>
		<path class="st2" d="M47.5,31v3c0,1.4,1.1,2.5,2.5,2.5s2.5-1.1,2.5-2.5v-3H47.5z"/>
	</g>
	<path class="st2" d="M42.7,50.2c1.4-0.9,2.3-2.4,2.3-4.2c0-2.8-2.2-5-5-5s-5,2.2-5,5c0,1.8,0.9,3.3,2.3,4.2L36,55h8L42.7,50.2z"/>
</g>
<rect class="st3" width="80" height="80"/>
</svg>
