<svg xmlns="http://www.w3.org/2000/svg" xmlns:xlink="http://www.w3.org/1999/xlink" width="476" height="160" viewBox="0 0 476 160">
  <defs>
    <linearGradient id="container-visibility-d" x1="50%" x2="50%" y1="100%" y2="0%">
      <stop offset="0%" stop-color="#00BFB3"/>
      <stop offset="100%" stop-color="#31C8FA"/>
    </linearGradient>
    <rect id="container-visibility-a" width="160" height="160" rx="5"/>
    <mask id="container-visibility-e" width="160" height="160" x="0" y="0" fill="#fff">
      <use xlink:href="#container-visibility-a"/>
    </mask>
    <rect id="container-visibility-b" width="160" height="160" x="158" rx="5"/>
    <mask id="container-visibility-f" width="160" height="160" x="0" y="0" fill="#fff">
      <use xlink:href="#container-visibility-b"/>
    </mask>
    <rect id="container-visibility-c" width="160" height="160" x="316" rx="5"/>
    <mask id="container-visibility-g" width="160" height="160" x="0" y="0" fill="#fff">
      <use xlink:href="#container-visibility-c"/>
    </mask>
    <polygon id="container-visibility-h" points="39.244 .178 0 .178 0 35.086 39.244 35.086"/>
  </defs>
  <g fill="none" fill-rule="evenodd">
    <use fill="#F5F5F5" stroke="url(#container-visibility-d)" stroke-dasharray="8" stroke-linejoin="round" stroke-width="4" mask="url(#container-visibility-e)" xlink:href="#container-visibility-a"/>
    <use fill="#F5F5F5" stroke="url(#container-visibility-d)" stroke-dasharray="8" stroke-linejoin="round" stroke-width="4" mask="url(#container-visibility-f)" xlink:href="#container-visibility-b"/>
    <use fill="#F5F5F5" stroke="url(#container-visibility-d)" stroke-dasharray="8" stroke-linejoin="round" stroke-width="4" mask="url(#container-visibility-g)" xlink:href="#container-visibility-c"/>
    <g transform="translate(215 50)">
      <g transform="translate(0 .143)">
        <mask id="container-visibility-i" fill="#fff">
          <use xlink:href="#container-visibility-h"/>
        </mask>
        <path fill="#07A5DE" d="M21.7184485,35.086139 L0.00019330317,35.086139 L0.00019330317,0.178010695 L21.7184485,0.178010695 C31.3974603,0.178010695 39.2442802,7.9924492 39.2442802,17.6319144 L39.2442802,17.6319144 C39.2442802,27.2717005 31.3974603,35.086139 21.7184485,35.086139" mask="url(#container-visibility-i)"/>
      </g>
      <path fill="#3EBEB0" d="M28.2863747,59.8219251 L0,59.8219251 L0,24.9137968 L28.2863747,24.9137968 C37.9657086,24.9137968 45.8122063,32.7282353 45.8122063,42.3677005 L45.8122063,42.3677005 C45.8122063,52.0074866 37.9657086,59.8219251 28.2863747,59.8219251"/>
      <path fill="#017169" d="M41.5835707,6.15317647 C38.3699055,2.4264385 33.605949,0.0649411765 28.2862458,0.0649411765 L-0.00012886878,0.0649411765 L-0.00012886878,16.2129626 L26.2272449,16.2129626 C35.5505788,16.2129626 42.0381553,6.68034225 41.5835707,6.15317647" opacity=".496" transform="translate(0 24.849)"/>
      <path fill="#231F20" d="M21.7197372,35.228984 C27.9950024,35.2283422 33.4838458,31.9328342 36.5792738,26.9951872 C36.1607725,26.7705882 35.7306729,26.5649198 35.2925191,26.3740107 C35.1974784,26.3329412 35.1034042,26.2912299 35.0077191,26.2514439 C34.5869625,26.0768984 34.1565408,25.9212834 33.7196757,25.7794652 C33.6739272,25.764385 33.6310784,25.7448128 33.58533,25.7303743 C33.5115526,25.7069519 33.4361643,25.6877005 33.3617426,25.6652406 C32.9735254,25.5484492 32.5772539,25.4509091 32.1780829,25.3604278 C32.1162259,25.346631 32.0566241,25.326738 31.9941227,25.3135829 C31.9142241,25.2962567 31.8356141,25.2757219 31.7550711,25.2596791 C31.3597662,25.1807487 30.9551182,25.1278075 30.5504702,25.0758289 C30.4428648,25.0617112 30.3378367,25.0389305 30.2292648,25.026738 C30.1184376,25.0145455 30.0063218,25.0052406 29.894206,24.9949733 C29.4383327,24.9535829 28.9769824,24.931123 28.5117662,24.9250267 C28.4357336,24.9240642 28.3622784,24.9137968 28.2862458,24.9137968 L0.00019330317,24.9137968 L0.00019330317,35.228984 L21.7197372,35.228984 Z"/>
    </g>
    <path fill="#00A9E5" d="M74.2791177,58 L82.2791177,58 L82.2791177,50 L74.2791177,50 L74.2791177,58 Z M74.2791177,68 L82.2791177,68 L82.2791177,60 L74.2791177,60 L74.2791177,68 Z M74.2791177,78 L82.2791177,78 L82.2791177,70 L74.2791177,70 L74.2791177,78 Z M64.2791177,68 L72.2791177,68 L72.2791177,60 L64.2791177,60 L64.2791177,68 Z M64.2791177,78 L72.2791177,78 L72.2791177,70 L64.2791177,70 L64.2791177,78 Z M54.2791177,68 L62.2791177,68 L62.2791177,60 L54.2791177,60 L54.2791177,68 Z M54.2791177,78 L62.2791177,78 L62.2791177,70 L54.2791177,70 L54.2791177,78 Z M44.2791177,78 L52.2791177,78 L52.2791177,70 L44.2791177,70 L44.2791177,78 Z M84.2791177,78 L92.2791177,78 L92.2791177,70 L84.2791177,70 L84.2791177,78 Z M119.975637,73.7039232 C118.086424,72.431252 113.750823,71.9647906 110.410909,72.5999383 C109.981828,69.4313275 108.228569,66.6832446 105.041898,64.1996746 L103.209268,62.968185 L101.98568,64.8166073 C100.421029,67.1956393 99.63831,70.4917549 99.894501,73.6524461 C100.010023,74.7643506 100.373091,76.7537408 101.508662,78.5015849 C100.373091,79.1169337 98.1420284,79.9651172 95.1753987,79.9057206 L38.3221998,79.9057206 L38.2113932,80.5654189 C37.677007,83.7419493 37.6887949,93.6540546 44.0747109,101.273451 C48.9289815,107.064224 56.2068511,110 65.7055672,110 C86.2975137,110 101.531452,100.448234 108.665509,83.0838349 C111.467893,83.1408557 117.511959,83.099674 120.615329,77.1259595 C120.695487,76.9897433 120.88095,76.6301959 121.423195,75.4984926 L121.721037,74.8776001 L119.975637,73.7039232 Z"/>
    <g transform="translate(366 50)">
      <path fill="#00A9E5" d="M29.7854709,0.00521344691 C29.2552006,0.0323803105 28.7355989,0.166131546 28.2572205,0.398482005 L7.40282508,10.5318089 C6.30942536,11.0628213 5.51525751,12.0671273 5.24512949,13.260473 L0.100236175,36.0224857 C-0.139849174,37.0819933 0.0555135572,38.194446 0.641601751,39.1064021 C0.71192892,39.2167186 0.787633045,39.3235634 0.868372732,39.4265024 L15.3029389,57.6778609 C16.0598094,58.6345164 17.2073201,59.1915673 18.4208052,59.1913937 L41.5688564,59.1859256 C42.7819147,59.1867936 43.9294254,58.6307842 44.686808,57.6751703 L59.1159972,39.4210343 C59.8732945,38.463858 60.1570783,37.2108841 59.8867796,36.0171044 L54.7338635,13.2550049 C54.4637355,12.061746 53.669653,11.05744 52.5761679,10.5264276 L31.7191266,0.398482005 C31.1174197,0.106156138 30.4524695,-0.0290706141 29.7854709,0.00521344691"/>
      <path fill="#F5F5F5" d="M30.1288293,37.1279811 C30.3015747,37.1214715 30.4769659,37.1575782 30.6435662,37.2391656 C30.861973,37.346184 31.0307924,37.5145665 31.1369659,37.7165386 L31.1609488,37.7165386 L34.3375349,43.5535085 C33.9253016,43.6940298 33.5014609,43.8141542 33.0679759,43.9143157 C30.638616,44.4751856 28.2169375,44.305154 26.0240783,43.5454366 L29.1926416,37.7193161 L29.1980185,37.7193161 C29.3880897,37.3577277 29.7486871,37.1421287 30.1288293,37.1279811 L30.1288293,37.1279811 Z M24.6852163,34.4400239 C25.1811764,34.4470543 25.6260982,34.7971857 25.741404,35.3107523 C25.7953443,35.5510879 25.7690569,35.7892536 25.6800384,35.9996449 L25.6987298,36.0240343 L23.202286,42.1594058 C20.8682604,40.6362387 19.0091138,38.3556977 18.0147184,35.5575107 L24.4584453,34.445492 L24.4691138,34.4590321 C24.5412333,34.445492 24.6142916,34.4390692 24.6852163,34.4400239 L24.6852163,34.4400239 Z M35.6018023,34.4129439 C35.6871508,34.4085173 35.7721579,34.4163289 35.8551167,34.431952 L35.8657852,34.4183252 L42.3656714,35.535812 C41.414377,38.2536267 39.5941494,40.6081171 37.1620584,42.1837952 L34.6389005,35.9861049 L34.6469232,35.9752555 C34.415202,35.4274917 34.6470939,34.7852948 35.1803514,34.5241284 C35.316909,34.4572094 35.4595264,34.4202347 35.6018023,34.4129439 L35.6018023,34.4129439 Z M29.1632817,28.9827826 L31.1716174,28.9827826 L32.4198393,30.5694836 L31.9717596,32.5495401 L30.1688578,33.431031 L28.3604936,32.5468494 L27.912414,30.566793 L29.1632817,28.9827826 Z M41.1680612,24.1818857 C41.8964254,25.3825222 42.4480328,26.7234196 42.7763685,28.1772373 C43.1008635,29.6135225 43.1822006,31.0472038 43.0484595,32.4328874 L36.73267,30.5831105 L36.7272931,30.5559436 C36.1617739,30.3987577 35.8142347,29.813672 35.9458421,29.2268504 C35.9998678,28.9865148 36.1252447,28.7830671 36.2952589,28.6329116 L36.2925278,28.6192847 L41.1680612,24.1818857 Z M19.1349175,24.179195 L24.0370797,28.6382929 L24.0317027,28.6654597 C24.4742347,29.0565584 24.539441,29.7354696 24.1703941,30.2060726 C24.0192419,30.3988445 23.8168806,30.5280824 23.5996686,30.5884918 L23.5942916,30.6101905 L17.3105932,32.4545862 C16.990707,29.4805524 17.6799815,26.5894947 19.1349175,24.179195 L19.1349175,24.179195 Z M31.7344054,18.0275929 C34.5742063,18.3827585 37.2005505,19.6905001 39.2130683,21.6946856 L33.8787867,25.5408364 L33.8600953,25.5326777 C33.3866672,25.8843714 32.7195833,25.7970555 32.3505363,25.3265394 C32.1993841,25.1337675 32.1200953,24.9071455 32.110451,24.6782668 L32.1051594,24.6755762 L31.7344054,18.0275929 Z M28.6058706,18.0275929 L28.235202,24.6864256 L28.2084879,24.6999656 C28.1835662,25.2956403 27.7015178,25.7713642 27.1096259,25.7713642 C26.8671508,25.7713642 26.643367,25.6922071 26.4614894,25.5570671 L26.4508208,25.5625352 L21.0818877,21.6919949 C22.7319303,20.0419334 24.8425989,18.8225492 27.274946,18.2608982 C27.7193557,18.1582196 28.1634239,18.0821003 28.6058706,18.0275929 L28.6058706,18.0275929 Z M30.1688578,8.18181818 C29.4794979,8.18181818 28.9205505,8.81325247 28.9206359,9.59223841 C28.9206359,9.60412934 28.9230256,9.61558629 28.9232817,9.62747722 C28.9222575,9.73328044 28.9172219,9.86078243 28.9206359,9.95295881 C28.9370228,10.4022102 29.0333813,10.7460056 29.0913329,11.1599314 C29.1963116,12.0458488 29.2843059,12.7801353 29.2300242,13.4626919 C29.1771935,13.7201262 28.9907924,13.9555144 28.8246188,14.1191232 L28.7952589,14.6561244 C28.0461551,14.7192245 27.292101,14.8348355 26.5388151,15.0087729 C23.2977909,15.7571202 20.5072362,17.4549189 18.3827412,19.7472641 C18.2449033,19.6515291 18.0037084,19.4756823 17.9320157,19.4217825 C17.7090854,19.4523344 17.4838507,19.5222912 17.1905079,19.3485274 C16.6319019,18.9661083 16.1231394,18.4383073 15.507606,17.8024465 C15.2254439,17.4983165 15.0212049,17.2086813 14.6861266,16.9155742 C14.6099104,16.8489156 14.4938365,16.7589091 14.408744,16.6904278 C14.1467241,16.4779534 13.8376771,16.3672029 13.5392134,16.3567874 C13.1554865,16.343421 12.7860982,16.4960068 12.5443912,16.8043029 C12.1146615,17.3525007 12.2521579,18.1903337 12.8511338,18.6758655 C12.8571081,18.680726 12.8635946,18.6846318 12.8697397,18.6894055 C12.9520157,18.7572793 13.0528123,18.8441612 13.1285164,18.901012 C13.4840783,19.1679937 13.809,19.3046959 14.163367,19.5166495 C14.9098251,19.9855166 15.5287724,20.3742718 16.0196971,20.8430521 C16.2113045,21.0508396 16.2448464,21.4169413 16.2703656,21.5753423 L16.6704794,21.9388401 C14.528744,25.2164832 13.5375064,29.265127 14.1233386,33.3903241 L13.600579,33.544993 C13.4627412,33.7258739 13.2680612,34.0105618 13.064505,34.0955342 C12.4221722,34.3013254 11.6993557,34.3768371 10.8267525,34.4698814 C10.4169944,34.5044259 10.0634808,34.4837687 9.62922764,34.5675259 C9.53355196,34.5859265 9.40040829,34.6211653 9.29577102,34.6461623 C9.29210104,34.6469434 9.28877244,34.6480718 9.28510246,34.6489397 C9.27938411,34.6501549 9.27187344,34.6530191 9.26649648,34.654321 C8.53070701,34.8350284 8.05813233,35.5227927 8.21030872,36.2003152 C8.3624851,36.8780113 9.08111953,37.2902011 9.82126178,37.1279811 C9.82655338,37.1266792 9.8343201,37.1264188 9.83986775,37.1252905 C9.8482319,37.1232942 9.85557188,37.119128 9.86393603,37.1171317 C9.96703702,37.0940442 10.09634,37.0684397 10.1866387,37.0438767 C10.6136373,36.9275712 10.9229403,36.7567585 11.3068379,36.6072106 C12.1327554,36.3059448 12.8167383,36.0543258 13.4832248,35.9562474 C13.7615463,35.9340278 14.0548037,36.1308791 14.2006643,36.213942 L14.7447611,36.1189882 C15.9968237,40.0666025 18.6207781,43.2574505 21.9433955,45.2596396 L21.7166245,45.8129583 C21.7983884,46.0276894 21.8885164,46.3184529 21.8276629,46.5305801 C21.5853585,47.1694788 21.1703941,47.8439635 20.6978194,48.5957825 C20.469,48.9431365 20.2348037,49.2126353 20.0283457,49.6102436 C19.9789289,49.7052842 19.9160271,49.8514471 19.8683173,49.9519558 C19.5474922,50.649962 19.782798,51.4539449 20.3990996,51.7556446 C21.0192419,52.0591671 21.7889147,51.7390668 22.1220299,51.0395851 C22.122542,51.0386304 22.124249,51.0378492 22.1247611,51.0368945 C22.1251025,51.0361133 22.1243343,51.034985 22.1247611,51.0342038 C22.1721295,50.9349971 22.2393841,50.8046308 22.2794126,50.7114129 C22.4562547,50.2993966 22.5150598,49.9463142 22.6394979,49.5478379 C22.9697966,48.7041028 23.1512476,47.8189665 23.6058137,47.2672969 C23.7303372,47.1162734 23.9332959,47.0582075 24.1437653,47.0009227 L24.4264396,46.4801522 C27.3229972,47.6107451 30.5653016,47.9141807 33.8041067,47.1663542 C34.5429687,46.995715 35.2563116,46.7749083 35.9458421,46.5100097 C36.0253016,46.6533084 36.1729545,46.928796 36.2125562,46.9982321 C36.4264396,47.0689701 36.6597824,47.1055108 36.8500242,47.3915007 C37.190138,47.9824884 37.4227127,48.6816229 37.7061551,49.5261391 C37.8305932,49.9246154 37.8919588,50.2776978 38.0688862,50.6897141 C38.1091707,50.7836264 38.176084,50.9158153 38.2235377,51.0151957 C38.5560555,51.716934 39.3282035,52.0381627 39.9491992,51.7339459 C40.5654154,51.4320725 40.8009773,50.6281764 40.4799815,49.9302571 C40.4322717,49.8297484 40.3667241,49.6835854 40.3173073,49.5885448 C40.1108493,49.1909365 39.876653,48.9241284 39.6478336,48.5767744 C39.1752589,47.8249553 38.7832532,47.2003779 38.5409488,46.561566 C38.4396402,46.232005 38.5580185,46.026995 38.6369659,45.8129583 C38.5896828,45.7578434 38.4886302,45.4465963 38.4289716,45.3002597 C41.8820015,43.2268986 44.4288009,39.9171414 45.6248749,36.0945988 C45.7864396,36.1203769 46.0671508,36.1708916 46.158303,36.1894658 C46.3460697,36.0635261 46.5187298,35.8993098 46.8571366,35.9263899 C47.5235377,36.0243815 48.207606,36.2761741 49.0335235,36.5773531 C49.4174211,36.726901 49.7267241,36.9004912 50.1537227,37.0167966 C50.243936,37.0413596 50.373239,37.0642735 50.4764254,37.0872742 C50.4847042,37.0893573 50.4920441,37.0935235 50.5004083,37.095433 C50.5059559,37.0967349 50.5137227,37.0969085 50.5190996,37.0981236 C51.2593272,37.2600832 51.978047,36.8482405 52.1300527,36.1705445 C52.2820584,35.4928484 51.8096544,34.8049973 51.0738649,34.6244635 C50.9668379,34.5997269 50.8150882,34.5577181 50.7111338,34.5376684 C50.2767952,34.4539979 49.9232817,34.4746552 49.5136089,34.4400239 C48.6409204,34.3470664 47.9181039,34.2713811 47.2758564,34.0657635 C47.0139218,33.9623905 46.8276914,33.6455017 46.7370512,33.5151354 L46.232983,33.3659347 C46.4944054,31.4430762 46.4238222,29.441755 45.9716458,27.4394791 C45.5151167,25.4184554 44.7084879,23.5700671 43.6324993,21.9415308 C43.7618877,21.822014 44.0059844,21.6020752 44.0752874,21.5374128 C44.095515,21.3095757 44.0781039,21.0708024 44.3099958,20.8185759 C44.8009204,20.3498824 45.4198678,19.9611272 46.1663258,19.4922601 C46.5206928,19.2803065 46.8482604,19.1436042 47.2038222,18.8765357 C47.2842205,18.8161264 47.3941494,18.720565 47.4785591,18.6514761 C48.0772788,18.1656839 48.215202,17.3279377 47.7853016,16.7799135 C47.3554012,16.2318893 46.5223998,16.1802462 45.9235946,16.6660384 C45.8384168,16.7346933 45.7226843,16.824179 45.646212,16.891098 C45.3110484,17.1842918 45.1040783,17.4739271 44.8220868,17.7780571 C44.2065534,18.4139179 43.6977056,18.9444095 43.1390996,19.3268287 C42.8970512,19.4701274 42.5425136,19.4205674 42.3816316,19.4109331 L41.9069232,19.755336 C39.199754,16.8685313 35.5138934,15.0228337 31.5450171,14.6642832 C31.5339218,14.4951195 31.5194126,14.1894272 31.5157426,14.0974244 C31.353239,13.9392838 31.1569375,13.8043174 31.107606,13.4626919 C31.0534097,12.7801353 31.1440498,12.0458488 31.2490285,11.1599314 C31.3069801,10.7460056 31.4032532,10.4022102 31.4197255,9.95295881 C31.4233955,9.85080099 31.4174211,9.70264177 31.4169944,9.59223841 C31.416909,8.81325247 30.8581323,8.18173139 30.1688578,8.18181818 L30.1688578,8.18181818 Z"/>
    </g>
    <circle cx="159" cy="80" r="15" fill="#F5F5F5"/>
    <circle cx="317" cy="80" r="15" fill="#F5F5F5"/>
    <path fill="#00A9E5" d="M160 78L160 69 158 69 158 78 149 78 149 80 158 80 158 89 160 89 160 80 169 80 169 78 160 78zM318 78L318 69 316 69 316 78 307 78 307 80 316 80 316 89 318 89 318 80 327 80 327 78 318 78z"/>
  </g>
</svg>
