<?xml version="1.0" encoding="UTF-8" standalone="no"?>
<svg width="347px" height="319px" viewBox="0 0 347 319" version="1.1" xmlns="http://www.w3.org/2000/svg" xmlns:xlink="http://www.w3.org/1999/xlink">
    <!-- Generator: Sketch 3.8.3 (29802) - http://www.bohemiancoding.com/sketch -->
    <title>ElasticCloud-Illustration</title>
    <desc>Created with Sketch.</desc>
    <defs>
        <linearGradient x1="100%" y1="50%" x2="3.061617e-15%" y2="50%" id="linearGradient-1">
            <stop stop-color="#00BFB3" offset="0%"></stop>
            <stop stop-color="#31C8FA" offset="100%"></stop>
        </linearGradient>
        <linearGradient x1="50%" y1="100%" x2="50%" y2="0%" id="linearGradient-2">
            <stop stop-color="#00BFB3" offset="0%"></stop>
            <stop stop-color="#31C8FA" offset="100%"></stop>
        </linearGradient>
        <polygon id="path-3" points="0 0.0965 0 34.3295 24.8528 34.3295 24.8528 0.0965 8.13151629e-20 0.0965"></polygon>
        <polygon id="path-5" points="30.6942 0.431 0.9242 0.431 0.9242 18.6099 30.6942 18.6099 30.6942 0.431"></polygon>
    </defs>
    <g id="Page-1" stroke="none" stroke-width="1" fill="none" fill-rule="evenodd">
        <g id="Beats-Product-Page" transform="translate(-134.000000, -1930.000000)">
            <g id="ElasticCloud-Illustration" transform="translate(134.000000, 1930.000000)">
                <circle id="Oval-156-Copy-21" fill="#00BFB3" opacity="0.588036381" transform="translate(66.000000, 72.000000) scale(1, -1) rotate(-90.000000) translate(-66.000000, -72.000000) " cx="66" cy="72" r="3"></circle>
                <circle id="Oval-156-Copy-22" fill="#00BFB3" opacity="0.588036381" transform="translate(235.000000, 141.000000) scale(1, -1) rotate(-90.000000) translate(-235.000000, -141.000000) " cx="235" cy="141" r="3"></circle>
                <circle id="Oval-156-Copy-23" fill="#00BFB3" opacity="0.588036381" transform="translate(139.000000, 202.000000) scale(1, -1) rotate(-90.000000) translate(-139.000000, -202.000000) " cx="139" cy="202" r="3"></circle>
                <path d="M294.8696,201.3684 C294.7695,201.2039 294.6638,201.0443 294.5511,200.8896 C294.5322,200.8595 294.5119,200.8294 294.4937,200.8 L294.4937,200.8133 C293.2169,199.1081 291.1876,198 288.8937,198 C286.6005,198 284.5705,199.1081 283.2937,200.8133 L283.2937,200.8 C283.2762,200.8294 283.2552,200.8595 283.237,200.8896 C283.1243,201.0443 283.0179,201.2039 282.9185,201.3684 C281.6011,203.222 279.3156,204.9965 277,205 C279.3142,205.0035 281.5983,206.7759 282.9157,208.6281 C283.0172,208.7954 283.125,208.9578 283.2398,209.1153 C283.2573,209.1433 283.2769,209.172 283.2937,209.2 L283.2937,209.1874 C284.5705,210.8919 286.6005,212 288.8937,212 C291.1876,212 293.2169,210.8919 294.4937,209.1874 L294.4937,209.2 C294.5112,209.172 294.5308,209.1433 294.5483,209.1153 C294.6631,208.9578 294.7709,208.7954 294.8724,208.6281 C296.1898,206.7759 298.4739,205.0035 300.7874,205 C298.4725,204.9965 296.1863,203.222 294.8696,201.3684" id="Fill-1" fill="url(#linearGradient-1)" transform="translate(288.893700, 205.000000) scale(1, -1) translate(-288.893700, -205.000000) "></path>
                <path d="M50.8696,176.3684 C50.7695,176.2039 50.6638,176.0443 50.5511,175.8896 C50.5322,175.8595 50.5119,175.8294 50.4937,175.8 L50.4937,175.8133 C49.2169,174.1081 47.1876,173 44.8937,173 C42.6005,173 40.5705,174.1081 39.2937,175.8133 L39.2937,175.8 C39.2762,175.8294 39.2552,175.8595 39.237,175.8896 C39.1243,176.0443 39.0179,176.2039 38.9185,176.3684 C37.6011,178.222 35.3156,179.9965 33,180 C35.3142,180.0035 37.5983,181.7759 38.9157,183.6281 C39.0172,183.7954 39.125,183.9578 39.2398,184.1153 C39.2573,184.1433 39.2769,184.172 39.2937,184.2 L39.2937,184.1874 C40.5705,185.8919 42.6005,187 44.8937,187 C47.1876,187 49.2169,185.8919 50.4937,184.1874 L50.4937,184.2 C50.5112,184.172 50.5308,184.1433 50.5483,184.1153 C50.6631,183.9578 50.7709,183.7954 50.8724,183.6281 C52.1898,181.7759 54.4739,180.0035 56.7874,180 C54.4725,179.9965 52.1863,178.222 50.8696,176.3684" id="Fill-1-Copy-6" fill="url(#linearGradient-1)" transform="translate(44.893700, 180.000000) scale(1, -1) translate(-44.893700, -180.000000) "></path>
                <path d="M158,141.5 L158,220.5 C158,225.47 153.964,229.5 148.985,229.5 L133.963,229.5 L78.297,229.5 L34.037,229.5 L19.015,229.5 C14.036,229.5 10,233.53 10,238.5 L10,268" id="Stroke-3" stroke="url(#linearGradient-2)" stroke-width="2" transform="translate(84.000000, 204.750000) scale(1, -1) translate(-84.000000, -204.750000) "></path>
                <path d="M168,102.5 L168,227.5 C168,232.47 163.964,236.5 158.985,236.5 L98.015,236.5 C93.036,236.5 89,240.53 89,245.5 L89,268" id="Stroke-5" stroke="url(#linearGradient-2)" stroke-width="2" transform="translate(128.500000, 185.250000) scale(1, -1) translate(-128.500000, -185.250000) "></path>
                <path d="M188,89 L188,195 C188,199.97 192.036,204 197.015,204 L212.037,204 L237.055,204 L246.963,204 L261.985,204 C266.964,204 271,208.03 271,213 L271,227" id="Stroke-7" stroke="url(#linearGradient-2)" stroke-width="2" transform="translate(229.500000, 158.000000) scale(1, -1) translate(-229.500000, -158.000000) "></path>
                <path d="M178,53 L178,83 C178,87.97 182.036,92 187.015,92 L202.037,92 L222.067,92 C227.046,92 231.082,96.03 231.082,101 L231.082,115" id="Stroke-9" stroke="url(#linearGradient-2)" stroke-width="2" transform="translate(204.541000, 84.000000) scale(1, -1) translate(-204.541000, -84.000000) "></path>
                <path d="M178,13.498 L178,183.498 C178,188.468 173.981492,192.498 169.024072,192.498 L152.975928,192.498 C148.017512,192.498 144,196.528 144,201.498 L144,238" id="Stroke-11" stroke="url(#linearGradient-2)" stroke-width="2" transform="translate(161.000000, 125.749000) scale(1, -1) translate(-161.000000, -125.749000) "></path>
                <path d="M198,151 L198,216 C198,220.97 202.036,225 207.015,225 L222.037,225 L277.703,225 L314.963,225 L329.985,225 C334.964,225 339,229.03 339,234 L339,279" id="Stroke-1" stroke="url(#linearGradient-2)" stroke-width="2" transform="translate(268.500000, 215.000000) scale(1, -1) translate(-268.500000, -215.000000) "></path>
                <path d="M149.9759,33.4747 C149.8758,33.3102 149.7701,33.1506 149.6574,32.9959 C149.6385,32.9658 149.6182,32.9357 149.6,32.9063 L149.6,32.9196 C148.3232,31.2144 146.2939,30.1063 144,30.1063 C141.7068,30.1063 139.6768,31.2144 138.4,32.9196 L138.4,32.9063 C138.3825,32.9357 138.3615,32.9658 138.3433,32.9959 C138.2306,33.1506 138.1242,33.3102 138.0248,33.4747 C136.7074,35.3283 134.4219,37.1028 132.1063,37.1063 C134.4205,37.1098 136.7046,38.8822 138.022,40.7344 C138.1235,40.9017 138.2313,41.0641 138.3461,41.2216 C138.3636,41.2496 138.3832,41.2783 138.4,41.3063 L138.4,41.2937 C139.6768,42.9982 141.7068,44.1063 144,44.1063 C146.2939,44.1063 148.3232,42.9982 149.6,41.2937 L149.6,41.3063 C149.6175,41.2783 149.6371,41.2496 149.6546,41.2216 C149.7694,41.0641 149.8772,40.9017 149.9787,40.7344 C151.2961,38.8822 153.5802,37.1098 155.8937,37.1063 C153.5788,37.1028 151.2926,35.3283 149.9759,33.4747" id="Fill-1-Copy-7" fill="url(#linearGradient-1)" transform="translate(144.000000, 37.106300) scale(1, -1) rotate(-90.000000) translate(-144.000000, -37.106300) "></path>
                <circle id="Oval-142" fill="#39BDB1" transform="translate(89.000000, 88.000000) scale(1, -1) translate(-89.000000, -88.000000) " cx="89" cy="88" r="15"></circle>
                <circle id="Oval-142-Copy-3" fill="#39BDB1" transform="translate(339.000000, 143.000000) scale(1, -1) translate(-339.000000, -143.000000) " cx="339" cy="143" r="8"></circle>
                <circle id="Oval-142-Copy" fill="#39BDB1" transform="translate(271.000000, 76.000000) scale(1, -1) translate(-271.000000, -76.000000) " cx="271" cy="76" r="15"></circle>
                <circle id="Oval-142-Copy-2" fill="#16A7DF" transform="translate(10.000000, 133.000000) scale(1, -1) translate(-10.000000, -133.000000) " cx="10" cy="133" r="10"></circle>
                <circle id="Oval-142-Copy-4" fill="#16A7DF" transform="translate(231.000000, 46.000000) scale(1, -1) translate(-231.000000, -46.000000) " cx="231" cy="46" r="8"></circle>
                <circle id="Oval-142-Copy-6" fill="#C9E6F1" transform="translate(274.000000, 14.000000) scale(1, -1) translate(-274.000000, -14.000000) " cx="274" cy="14" r="3"></circle>
                <circle id="Oval-142-Copy-7" fill="#C9E6F1" transform="translate(90.000000, 153.000000) scale(1, -1) translate(-90.000000, -153.000000) " cx="90" cy="153" r="3"></circle>
                <circle id="Oval-142-Copy-5" fill="#16A7DF" transform="translate(144.000000, 9.000000) scale(1, -1) translate(-144.000000, -9.000000) " cx="144" cy="9" r="9"></circle>
                <path d="M250.369252,298.152969 C250.369252,286.763844 241.201687,277.524875 229.827537,277.33925 C230.188408,274.942625 230.378667,272.489281 230.378667,269.992625 C230.378667,242.934687 208.385197,221 181.255782,221 C157.617197,221 137.885116,237.653656 133.19483,259.835844 C131.765823,259.625469 130.303728,259.514094 128.814748,259.514094 C112.349116,259.514094 99,272.8265 99,289.249156 C99,305.616125 112.26019,318.890375 128.649306,318.980094 L128.649306,318.986281 L229.529741,318.986281 L229.529741,318.982156 C241.043483,318.956375 250.369252,309.642125 250.369252,298.152969" id="Fill-1" fill="#00A9E5"></path>
                <path d="M249.369252,298.152969 C249.369252,286.763844 240.201687,277.524875 228.827537,277.33925 C229.188408,274.942625 229.378667,272.489281 229.378667,269.992625 C229.378667,242.934687 207.385197,221 180.255782,221 C156.617197,221 136.885116,237.653656 132.19483,259.835844 C130.765823,259.625469 129.303728,259.514094 127.814748,259.514094 C111.349116,259.514094 98,272.8265 98,289.249156 C98,305.616125 111.26019,318.890375 127.649306,318.980094 L127.649306,318.986281 L228.529741,318.986281 L228.529741,318.982156 C240.043483,318.956375 249.369252,309.642125 249.369252,298.152969 L249.369252,298.152969 Z" id="Stroke-3"></path>
                <g id="Page-1" transform="translate(152.000000, 249.000000)">
                    <path d="M24.7848,19.1826 C24.8068,19.1826 24.8288,19.1796 24.8508,19.1796 C23.0728,12.6666 18.7058,7.2266 12.9248,4.0276 C10.6778,5.2576 8.6458,6.8286 6.8878,8.6656 C10.3988,14.9356 17.0868,19.1826 24.7848,19.1826" id="Fill-1" fill="#FFFFFF" opacity="0.5"></path>
                    <path d="M24.819,32.3745 C24.808,32.3745 24.796,32.3725 24.785,32.3725 C17.082,32.3725 10.392,36.6235 6.883,42.8985 C8.611,44.7045 10.605,46.2525 12.807,47.4735 C18.611,44.3015 23.009,38.8805 24.819,32.3745" id="Fill-3" fill="#FFFFFF" opacity="0.5"></path>
                    <g id="Group-7" transform="translate(0.000000, 8.569300)">
                        <mask id="mask-4" fill="white">
                            <use xlink:href="#path-3"></use>
                        </mask>
                        <g id="Clip-6"></g>
                        <path d="M24.7848,23.8035 C24.7958,23.8035 24.8078,23.8055 24.8188,23.8055 C24.8188,23.8045 24.8198,23.8025 24.8198,23.8015 C24.8078,23.8015 24.7968,23.8035 24.7848,23.8035 C21.1518,23.8035 18.1968,20.8475 18.1968,17.2155 C18.1968,13.5825 21.1648,10.6125 24.7978,10.6125 C24.8158,10.6125 24.8338,10.6155 24.8528,10.6155 C24.8518,10.6135 24.8518,10.6115 24.8508,10.6095 C24.8288,10.6105 24.8068,10.6135 24.7848,10.6135 C17.0868,10.6135 10.3988,6.3665 6.8878,0.0965 C2.6268,4.5495 -0.000199999999,10.5795 -0.000199999999,17.2155 C-0.000199999999,23.8485 2.6248,29.8765 6.8828,34.3295 C10.3918,28.0545 17.0828,23.8035 24.7848,23.8035" id="Fill-5" fill="#FFFFFF" mask="url(#mask-4)"></path>
                    </g>
                    <g id="Group-10" opacity="0.7" transform="translate(12.000000, 0.569300)">
                        <mask id="mask-6" fill="white">
                            <use xlink:href="#path-5"></use>
                        </mask>
                        <g id="Clip-9"></g>
                        <path d="M12.8512,18.6099 C20.5182,18.5849 27.1862,14.3539 30.6942,8.1089 C26.1782,3.3829 19.8212,0.4309 12.7842,0.4309 C8.4912,0.4309 4.4492,1.5289 0.9242,3.4589 C6.7052,6.6579 11.0732,12.0969 12.8512,18.6099" id="Fill-8" fill="#FFFFFF" mask="url(#mask-6)"></path>
                    </g>
                    <path d="M42.6992,42.885 C39.1882,36.626 32.5032,32.387 24.8192,32.375 C23.0092,38.88 18.6112,44.302 12.8072,47.474 C16.3602,49.443 20.4422,50.569 24.7842,50.569 C31.8242,50.569 38.1832,47.614 42.6992,42.885" id="Fill-11" fill="#FFFFFF" opacity="0.7"></path>
                </g>
            </g>
        </g>
    </g>
</svg>