<?xml version="1.0" encoding="UTF-8" standalone="no"?>
<svg width="358px" height="332px" viewBox="0 0 358 332" version="1.1" xmlns="http://www.w3.org/2000/svg" xmlns:xlink="http://www.w3.org/1999/xlink">
    <!-- Generator: Sketch 40.2 (33826) - http://www.bohemiancoding.com/sketch -->
    <title>Group 28</title>
    <desc>Created with Sketch.</desc>
    <defs>
        <linearGradient x1="100%" y1="50%" x2="3.061617e-15%" y2="50%" id="linearGradient-1">
            <stop stop-color="#00BFB3" offset="0%"></stop>
            <stop stop-color="#31C8FA" offset="100%"></stop>
        </linearGradient>
    </defs>
    <g id="Page-1" stroke="none" stroke-width="1" fill="none" fill-rule="evenodd">
        <g id="Beats-Product-Page" transform="translate(-711.000000, -1518.000000)">
            <g id="Group-28" transform="translate(712.000000, 1519.000000)">
                <polygon id="Stroke-2" stroke="url(#linearGradient-1)" stroke-width="2" stroke-linejoin="round" points="0 330 356 330 356 280 0 280"></polygon>
                <polyline id="Stroke-8" stroke="#14A7DF" stroke-width="2" stroke-linejoin="round" points="355 216 355 166 305 166 305 216"></polyline>
                <polygon id="Stroke-9" stroke="#13A7DF" stroke-width="2" stroke-linecap="round" stroke-linejoin="round" points="305 266 355 266 355 216 305 216"></polygon>
                <polygon id="Stroke-10" stroke="#13A7DF" stroke-width="2" stroke-linecap="round" stroke-linejoin="round" points="255 266 305 266 305 216 255 216"></polygon>
                <polygon id="Stroke-11" stroke="#13A7DF" stroke-width="2" stroke-linecap="round" stroke-linejoin="round" points="205 266 255 266 255 216 205 216"></polygon>
                <path d="M148.556315,311 L148.556315,301.005859 L150.190104,301.005859 L150.190104,309.598633 L154.421549,309.598633 L154.421549,311 L148.556315,311 Z M157.310872,311 L157.310872,301.005859 L158.944661,301.005859 L158.944661,311 L157.310872,311 Z M162.75,301.005859 L165.716797,301.005859 C167.093106,301.005859 168.087725,301.206378 168.700683,301.607422 C169.313642,302.008466 169.620117,302.641923 169.620117,303.507812 C169.620117,304.091149 169.469728,304.576495 169.168945,304.963867 C168.868162,305.351239 168.435224,305.595052 167.870117,305.695312 L167.870117,305.763672 C168.571943,305.895834 169.088052,306.156736 169.418457,306.546387 C169.748862,306.936037 169.914062,307.463538 169.914062,308.128906 C169.914062,309.026697 169.600752,309.729652 168.974121,310.237793 C168.34749,310.745934 167.475917,311 166.359375,311 L162.75,311 L162.75,301.005859 Z M164.383789,305.134766 L165.956055,305.134766 C166.639652,305.134766 167.13867,305.026531 167.453125,304.810059 C167.76758,304.593586 167.924805,304.225589 167.924805,303.706055 C167.924805,303.236651 167.755047,302.897136 167.415527,302.6875 C167.076007,302.477864 166.537113,302.373047 165.798828,302.373047 L164.383789,302.373047 L164.383789,305.134766 Z M164.383789,306.460938 L164.383789,309.625977 L166.120117,309.625977 C166.803714,309.625977 167.319822,309.494956 167.668457,309.23291 C168.017091,308.970865 168.191406,308.557294 168.191406,307.992188 C168.191406,307.472654 168.013674,307.087566 167.658203,306.836914 C167.302732,306.586262 166.762699,306.460938 166.038086,306.460938 L164.383789,306.460938 Z M173.158854,301.005859 L176.125651,301.005859 C177.50196,301.005859 178.496579,301.206378 179.109538,301.607422 C179.722497,302.008466 180.028971,302.641923 180.028971,303.507812 C180.028971,304.091149 179.878582,304.576495 179.577799,304.963867 C179.277017,305.351239 178.844078,305.595052 178.278971,305.695312 L178.278971,305.763672 C178.980798,305.895834 179.496906,306.156736 179.827311,306.546387 C180.157716,306.936037 180.322917,307.463538 180.322917,308.128906 C180.322917,309.026697 180.009606,309.729652 179.382975,310.237793 C178.756344,310.745934 177.884771,311 176.768229,311 L173.158854,311 L173.158854,301.005859 Z M174.792643,305.134766 L176.364909,305.134766 C177.048506,305.134766 177.547524,305.026531 177.861979,304.810059 C178.176434,304.593586 178.333659,304.225589 178.333659,303.706055 C178.333659,303.236651 178.163901,302.897136 177.824381,302.6875 C177.484862,302.477864 176.945967,302.373047 176.207682,302.373047 L174.792643,302.373047 L174.792643,305.134766 Z M174.792643,306.460938 L174.792643,309.625977 L176.528971,309.625977 C177.212568,309.625977 177.728677,309.494956 178.077311,309.23291 C178.425946,308.970865 178.60026,308.557294 178.60026,307.992188 C178.60026,307.472654 178.422528,307.087566 178.067057,306.836914 C177.711587,306.586262 177.171553,306.460938 176.44694,306.460938 L174.792643,306.460938 Z M189.221029,311 L183.567708,311 L183.567708,301.005859 L189.221029,301.005859 L189.221029,302.386719 L185.201497,302.386719 L185.201497,305.107422 L188.968099,305.107422 L188.968099,306.474609 L185.201497,306.474609 L185.201497,309.612305 L189.221029,309.612305 L189.221029,311 Z M198.748047,311 L197.75,308.224609 L193.928711,308.224609 L192.951172,311 L191.228516,311 L194.967774,300.964844 L196.745117,300.964844 L200.484375,311 L198.748047,311 Z M197.319336,306.816406 L196.382813,304.095703 C196.314453,303.913411 196.21989,303.626304 196.099121,303.234375 C195.978352,302.842446 195.895183,302.555339 195.849609,302.373047 C195.726562,302.933597 195.546551,303.546546 195.30957,304.211914 L194.407227,306.816406 L197.319336,306.816406 Z M205.444987,311 L203.811198,311 L203.811198,302.407227 L200.871745,302.407227 L200.871745,301.005859 L208.38444,301.005859 L208.38444,302.407227 L205.444987,302.407227 L205.444987,311 Z" id="LIBBEAT" fill="#666666"></path>
                <polyline id="Stroke-1" stroke="#FCD00C" stroke-width="2" stroke-linejoin="round" stroke-dasharray="8" points="203 50 203 0 153 0 153 50"></polyline>
                <polyline id="Stroke-1-Copy" stroke="#FCD00C" stroke-width="2" stroke-linejoin="round" stroke-dasharray="8" transform="translate(178.000000, 125.000000) scale(1, -1) translate(-178.000000, -125.000000) " points="203 150 203 100 153 100 153 150"></polyline>
                <polygon id="Stroke-12" stroke="#FCD00C" stroke-width="2" stroke-linecap="round" stroke-linejoin="round" stroke-dasharray="8" points="153 100 203 100 203 50 153 50"></polygon>
                <polyline id="Stroke-13" stroke="#FCD00C" stroke-width="2" stroke-linecap="round" stroke-linejoin="round" stroke-dasharray="8" points="203 100 253 100 253 50 203 50"></polyline>
                <polyline id="Stroke-15" stroke="#FCD00C" stroke-width="2" stroke-linecap="round" stroke-linejoin="round" stroke-dasharray="8" points="153 50 103 50 103 100 153 100"></polyline>
                <polyline id="Stroke-16" stroke="#00BFB3" stroke-width="2" stroke-linejoin="round" transform="translate(76.000000, 191.000000) scale(1, -1) rotate(90.000000) translate(-76.000000, -191.000000) " points="51 216 101 216 101 166 51 166"></polyline>
                <polygon id="Stroke-17" stroke="#00BFB3" stroke-width="2" stroke-linejoin="round" transform="translate(76.000000, 241.000000) scale(1, -1) rotate(90.000000) translate(-76.000000, -241.000000) " points="51 266 101 266 101 216 51 216"></polygon>
                <polyline id="Stroke-18" stroke="#00BFB3" stroke-width="2" stroke-linejoin="round" transform="translate(26.000000, 241.000000) scale(1, -1) rotate(90.000000) translate(-26.000000, -241.000000) " points="1 216 1 266 51 266 51 216"></polyline>
                <polyline id="Stroke-19" stroke="#00BFB3" stroke-width="2" stroke-linejoin="round" transform="translate(126.000000, 241.000000) scale(1, -1) rotate(90.000000) translate(-126.000000, -241.000000) " points="151 266 151 216 101 216 101 266"></polyline>
            </g>
        </g>
    </g>
</svg>