<?xml version="1.0" encoding="utf-8"?>
<!-- Generator: Adobe Illustrator 21.1.0, SVG Export Plug-In . SVG Version: 6.00 Build 0)  -->
<svg version="1.1" id="Layer_1" xmlns="http://www.w3.org/2000/svg" xmlns:xlink="http://www.w3.org/1999/xlink" x="0px" y="0px"
	 viewBox="0 0 170.1 170.1" style="enable-background:new 0 0 170.1 170.1;" xml:space="preserve">
<style type="text/css">
	.st0{fill:none;stroke:#20BBB1;stroke-width:4;stroke-linecap:round;stroke-linejoin:round;stroke-miterlimit:10;}
	.st1{fill:none;stroke:#16A7E0;stroke-width:4;stroke-linecap:round;stroke-linejoin:round;stroke-miterlimit:10;}
	.st2{fill:#20BBB1;}
	.st3{fill:none;stroke:#20BBB1;stroke-width:4;stroke-miterlimit:10;}
	.st4{opacity:0.4;}
	.st5{fill:#010101;}
	.st6{fill:none;stroke:#23BAB0;stroke-width:4.5714;stroke-miterlimit:10;}
	.st7{fill:none;stroke:#16A7E0;stroke-width:4.5714;stroke-linecap:round;stroke-linejoin:round;stroke-miterlimit:10;}
	.st8{fill:#16A7E0;}
	.st9{fill:#23BAB0;}
	.st10{fill:#FFFFFF;}
	.st11{fill:none;stroke:#16A7E0;stroke-width:3.573;stroke-linecap:round;stroke-linejoin:round;stroke-miterlimit:10;}
	.st12{fill:none;stroke:#20BBB1;stroke-width:3.573;stroke-linecap:round;stroke-miterlimit:10;}
	.st13{fill:none;stroke:#20BBB1;stroke-width:3.573;stroke-linecap:round;stroke-linejoin:round;stroke-miterlimit:10;}
	.st14{fill:none;stroke:#16A7E0;stroke-width:1.7865;stroke-linecap:round;stroke-miterlimit:10;}
	.st15{fill:none;stroke:#20BBB1;stroke-width:1.7865;stroke-linecap:round;stroke-miterlimit:10;}
	.st16{fill:none;stroke:#20BBB1;stroke-width:4;stroke-linecap:round;stroke-miterlimit:10;}
	.st17{fill:none;stroke:#16A7E0;stroke-width:1.7865;stroke-linecap:round;stroke-linejoin:round;stroke-miterlimit:10;}
	.st18{fill:none;stroke:#20BBB1;stroke-width:1.7865;stroke-linecap:round;stroke-linejoin:round;stroke-miterlimit:10;}
	.st19{fill:none;stroke:#16A7E0;stroke-width:4.6532;stroke-linecap:round;stroke-linejoin:round;stroke-miterlimit:10;}
	.st20{fill:none;stroke:#20BBB1;stroke-width:4.6532;stroke-linecap:round;stroke-miterlimit:10;}
	.st21{fill:#20BBB1;stroke:#20BBB1;stroke-width:0.2872;stroke-miterlimit:10;}
	.st22{fill:#FFFFFF;stroke:#20BBB1;stroke-width:2.3266;stroke-linecap:round;stroke-miterlimit:10;}
	.st23{fill:#FFFFFF;stroke:#16A7E0;stroke-width:2.3266;stroke-linecap:round;stroke-linejoin:round;stroke-miterlimit:10;}
	.st24{fill:none;stroke:#20BBB1;stroke-width:2.3266;stroke-linecap:round;stroke-miterlimit:10;}
	.st25{fill:none;stroke:#16A7E0;stroke-width:2.3266;stroke-linecap:round;stroke-linejoin:round;stroke-miterlimit:10;}
	.st26{fill:none;stroke:#20BBB1;stroke-width:2;stroke-linecap:round;stroke-miterlimit:10;}
	.st27{fill:none;stroke:#16A7E0;stroke-width:2;stroke-linecap:round;stroke-linejoin:round;stroke-miterlimit:10;}
	.st28{fill:none;stroke:#20BBB1;stroke-width:4.2654;stroke-linecap:round;stroke-miterlimit:10;}
	.st29{fill:none;stroke:#16A7E0;stroke-width:4.6532;stroke-linecap:round;stroke-miterlimit:10;}
	.st30{fill:none;stroke:#16A7E0;stroke-width:2.3266;stroke-linecap:round;stroke-miterlimit:10;}
	.st31{fill:none;stroke:#20BBB1;stroke-width:5;stroke-linecap:round;stroke-miterlimit:10;}
	.st32{fill:#FFFFFF;stroke:#20BBB1;stroke-width:2.3266;stroke-miterlimit:10;}
	.st33{fill:#FFFFFF;stroke:#CCCCCC;stroke-width:2.3266;stroke-miterlimit:10;}
	.st34{fill:none;stroke:#20BBB1;stroke-width:2.3266;stroke-linecap:round;stroke-linejoin:round;stroke-miterlimit:10;}
	.st35{fill:none;stroke:#20BBB1;stroke-width:4.6532;stroke-linecap:round;stroke-linejoin:round;stroke-miterlimit:10;}
	.st36{fill:none;stroke:#20BBB1;stroke-width:4.0031;stroke-linecap:round;stroke-linejoin:round;stroke-miterlimit:10;}
	.st37{fill:none;stroke:#16A7E0;stroke-width:4.0031;stroke-linecap:round;stroke-linejoin:round;stroke-miterlimit:10;}
	.st38{fill:none;stroke:#20BBB1;stroke-width:2;stroke-linecap:round;stroke-linejoin:round;stroke-miterlimit:10;}
	.st39{fill:none;stroke:#20BBB1;stroke-width:3.9838;stroke-linecap:round;stroke-linejoin:round;stroke-miterlimit:10;}
	.st40{fill:none;stroke:#16A7E0;stroke-width:3.9838;stroke-linecap:round;stroke-linejoin:round;stroke-miterlimit:10;}
	.st41{fill:none;stroke:#09A5DE;stroke-width:4;stroke-linecap:round;stroke-linejoin:round;stroke-miterlimit:10;}
	
		.st42{fill-rule:evenodd;clip-rule:evenodd;fill:none;stroke:#20BBB1;stroke-width:4.6532;stroke-linecap:round;stroke-linejoin:round;stroke-miterlimit:10;}
	
		.st43{fill-rule:evenodd;clip-rule:evenodd;fill:none;stroke:#16A7E0;stroke-width:4;stroke-linecap:round;stroke-linejoin:round;stroke-miterlimit:10;}
	
		.st44{fill-rule:evenodd;clip-rule:evenodd;fill:none;stroke:#16A7E0;stroke-width:4.6532;stroke-linecap:round;stroke-linejoin:round;stroke-miterlimit:10;}
	.st45{fill:#F7F8F8;}
</style>
<g>
	<g>
		<path class="st0" d="M139.7,56.5h-17.5c-3.2,0-5.8-2.6-5.8-5.8V33.1c0-3.2,2.6-5.8,5.8-5.8"/>
		<path class="st1" d="M122.2,27.3h17.5c3.2,0,5.8,2.6,5.8,5.8v17.5c0,3.2-2.6,5.8-5.8,5.8"/>
	</g>
	<g>
		<path class="st0" d="M52.1,33.1v17.5c0,3.2-2.6,5.8-5.8,5.8H28.7c-3.2,0-5.8-2.6-5.8-5.8"/>
		<path class="st1" d="M22.9,50.6V33.1c0-3.2,2.6-5.8,5.8-5.8h17.5c3.2,0,5.8,2.6,5.8,5.8"/>
	</g>
	<g>
		<path class="st0" d="M116.4,144.1v-17.5c0-3.2,2.6-5.8,5.8-5.8h17.5c3.2,0,5.8,2.6,5.8,5.8"/>
		<path class="st1" d="M145.6,126.5v17.5c0,3.2-2.6,5.8-5.8,5.8h-17.5c-3.2,0-5.8-2.6-5.8-5.8"/>
	</g>
	<g>
		<path class="st0" d="M28.7,120.7h17.5c3.2,0,5.8,2.6,5.8,5.8v17.5c0,3.2-2.6,5.8-5.8,5.8"/>
		<path class="st1" d="M46.3,149.9H28.7c-3.2,0-5.8-2.6-5.8-5.8v-17.5c0-3.2,2.6-5.8,5.8-5.8"/>
	</g>
	<g>
		<path class="st0" d="M28.7,74h17.5c3.2,0,5.8,2.6,5.8,5.8v17.5c0,3.2-2.6,5.8-5.8,5.8"/>
		<path class="st1" d="M46.3,103.2H28.7c-3.2,0-5.8-2.6-5.8-5.8V79.8c0-3.2,2.6-5.8,5.8-5.8"/>
	</g>
	<g>
		<path class="st0" d="M139.7,103.2h-17.5c-3.2,0-5.8-2.6-5.8-5.8V79.8c0-3.2,2.6-5.8,5.8-5.8"/>
		<path class="st1" d="M122.2,74h17.5c3.2,0,5.8,2.6,5.8,5.8v17.5c0,3.2-2.6,5.8-5.8,5.8"/>
	</g>
	<g>
		<path class="st0" d="M75.5,27.3H93c3.2,0,5.8,2.6,5.8,5.8v17.5c0,3.2-2.6,5.8-5.8,5.8"/>
		<path class="st1" d="M93,56.5H75.5c-3.2,0-5.8-2.6-5.8-5.8V33.1c0-3.2,2.6-5.8,5.8-5.8"/>
	</g>
	<g>
		<path class="st0" d="M98.8,126.5v17.5c0,3.2-2.6,5.8-5.8,5.8H75.5c-3.2,0-5.8-2.6-5.8-5.8"/>
		<path class="st1" d="M69.6,144.1v-17.5c0-3.2,2.6-5.8,5.8-5.8H93c3.2,0,5.8,2.6,5.8,5.8"/>
	</g>
	<line class="st0" x1="37.5" y1="56.5" x2="37.5" y2="74"/>
	<line class="st0" x1="37.6" y1="105.6" x2="37.6" y2="120.2"/>
	<line class="st0" x1="52.1" y1="135.3" x2="68.8" y2="135.3"/>
	<line class="st0" x1="98.8" y1="135.3" x2="115.2" y2="135.3"/>
	<line class="st0" x1="131" y1="120.7" x2="131" y2="105.6"/>
	<line class="st0" x1="131" y1="74.8" x2="131" y2="56.5"/>
	<line class="st0" x1="115.2" y1="41.9" x2="101.2" y2="41.9"/>
	<line class="st0" x1="69.3" y1="41.9" x2="54.9" y2="41.9"/>
</g>
</svg>
